<svg viewBox="0 0 100 100">
  <g transform="translate(0,-952.36218)">
    <path
      style="text-indent:0;text-transform:none;direction:ltr;block-progression:tb;baseline-shift:baseline;color:#000000;enable-background:accumulate;"
      d="m 28,956.36219 c -5.39048,0 -10,3.91869 -10,9 l 0,78.00001 c 2.6e-4,1.1524 0.26215,2.6203 1.40625,3.7187 1.14409,1.0984 2.53788,1.281 3.59375,1.2813 a 3.0003,3.0003 0 0 0 1.65625,-0.5313 L 50,1030.9247 75.34375,1047.8309 A 3.0003,3.0003 0 0 0 77,1048.3622 c 1.05586,-3e-4 2.44965,-0.1829 3.59375,-1.2813 1.1441,-1.0984 1.40599,-2.5663 1.40625,-3.7187 l 0,-78.00001 c 0,-5.08131 -4.60953,-9 -10,-9 l -44,0 z m 0,6 44,0 c 2.69019,0 4,1.53631 4,3 l 0,75.71871 -24.34375,-16.2187 a 3.0003,3.0003 0 0 0 -3.3125,0 L 24,1041.0809 24,965.36219 c 0,-1.46369 1.30979,-3 4,-3 z"
      fill="currentColor"
      fill-opacity="1"
      stroke="none"
      marker="none"
      visibility="visible"
      display="inline"
      overflow="visible"
    />
  </g>
</svg>
